<?xml version="1.0" standalone="no"?>
<!DOCTYPE svg PUBLIC "-//W3C//DTD SVG 20010904//EN"
 "http://www.w3.org/TR/2001/REC-SVG-20010904/DTD/svg10.dtd">
<svg version="1.0" xmlns="http://www.w3.org/2000/svg"
 width="900.000000pt" height="900.000000pt" viewBox="0 0 900.000000 900.000000"
 preserveAspectRatio="xMidYMid meet">
<metadata>
Created by potrace 1.10, written by Peter Selinger 2001-2011
</metadata>
<g transform="translate(0.000000,900.000000) scale(0.100000,-0.100000)"
fill="#ea3737" stroke="none">
<path d="M4125 8369 c-27 -5 -88 -13 -135 -18 -47 -5 -110 -16 -140 -25 -30
-9 -77 -20 -105 -23 -27 -3 -57 -11 -65 -18 -8 -7 -38 -16 -67 -20 -29 -4 -57
-13 -64 -21 -6 -8 -21 -14 -32 -14 -21 0 -67 -20 -222 -96 -342 -167 -663
-467 -795 -741 -11 -23 -24 -45 -29 -47 -5 -3 -12 -18 -15 -32 -4 -15 -14 -33
-21 -41 -8 -8 -15 -24 -15 -35 0 -11 -6 -32 -14 -46 -22 -42 -54 -150 -72
-237 -8 -44 -22 -89 -29 -101 l-14 -21 -906 -1 c-653 -1 -911 -4 -921 -13 -17
-14 -13 -162 6 -201 8 -17 26 -32 49 -39 91 -30 176 -88 222 -152 23 -32 29
-51 29 -91 0 -28 -6 -60 -14 -71 -7 -11 -16 -36 -19 -55 -6 -41 -32 -119 -58
-175 -11 -22 -19 -46 -19 -53 0 -6 -9 -29 -20 -49 -11 -21 -20 -46 -20 -56 0
-10 -6 -28 -14 -40 -8 -12 -17 -38 -21 -57 -4 -19 -16 -49 -26 -66 -10 -17
-19 -44 -19 -60 0 -16 -6 -38 -14 -49 -7 -11 -17 -36 -20 -55 -4 -19 -14 -53
-21 -75 -40 -122 -89 -321 -105 -435 -5 -36 -14 -96 -19 -135 -12 -84 -13
-328 -1 -405 5 -30 13 -84 18 -120 16 -105 87 -328 145 -454 148 -318 441
-651 764 -865 144 -96 286 -172 413 -221 47 -18 94 -37 105 -43 11 -6 36 -14
55 -18 19 -4 49 -12 65 -17 52 -18 117 -33 205 -48 122 -20 144 -27 157 -54 9
-18 12 -149 12 -490 1 -779 11 -1192 29 -1212 21 -25 202 -26 226 -2 9 8 16
20 16 26 0 24 93 159 129 188 113 89 211 81 626 -55 22 -7 67 -21 100 -30 33
-10 72 -22 87 -27 14 -5 41 -13 60 -18 18 -4 87 -23 153 -40 128 -35 219 -56
300 -69 28 -5 81 -16 118 -25 38 -9 85 -16 105 -16 20 0 69 -7 107 -15 85 -18
517 -21 610 -4 33 6 98 17 145 24 116 17 261 51 296 70 16 8 40 15 54 15 14 0
34 7 44 15 11 8 28 15 38 15 20 0 38 8 209 94 323 161 639 428 841 711 63 89
134 209 158 270 13 33 29 66 34 74 22 28 92 241 106 318 5 32 15 78 20 103 6
25 12 146 15 270 3 188 6 226 19 235 16 12 745 25 1387 25 224 0 308 3 317 12
15 15 16 146 1 185 -12 32 -26 43 -55 43 -29 0 -107 35 -126 57 -34 37 -38 69
-24 161 8 48 18 101 24 117 5 17 25 73 42 125 113 331 180 570 180 643 1 18 7
59 15 92 8 33 15 95 15 137 0 42 4 87 9 100 10 28 -4 363 -19 433 -6 28 -15
79 -21 115 -17 101 -95 334 -151 450 -85 178 -185 318 -338 470 -143 144 -160
159 -242 217 -29 20 -66 46 -83 58 -16 12 -37 25 -45 29 -8 3 -28 15 -45 26
-16 11 -37 22 -45 26 -8 3 -22 10 -30 15 -8 5 -22 12 -30 15 -8 3 -32 14 -52
24 -20 11 -44 20 -52 20 -8 0 -27 6 -43 14 -48 25 -135 56 -155 56 -10 0 -36
9 -58 20 -24 12 -59 20 -89 20 -28 0 -65 6 -83 14 -67 29 -604 59 -646 37 -16
-9 -24 -7 -36 5 -14 13 -16 56 -17 297 -1 155 -4 481 -8 725 -5 378 -8 444
-21 452 -8 5 -58 10 -111 10 -91 0 -98 -1 -112 -24 -9 -12 -19 -39 -22 -59 -9
-46 -66 -112 -108 -126 -37 -12 -159 -8 -208 7 -19 6 -56 16 -84 22 -125 28
-161 37 -182 48 -12 7 -30 12 -41 12 -11 0 -33 7 -48 15 -16 8 -43 15 -60 15
-17 0 -45 7 -61 15 -17 9 -48 17 -70 19 -21 2 -66 14 -100 25 -34 12 -82 21
-105 21 -24 1 -61 7 -83 15 -22 8 -67 15 -100 15 -34 0 -87 7 -118 15 -46 12
-119 15 -345 14 -158 -1 -309 -5 -337 -10z m700 -328 c149 -24 211 -38 252
-57 17 -8 43 -14 58 -14 15 0 39 -7 53 -15 15 -8 54 -26 87 -40 114 -51 130
-59 224 -114 82 -48 340 -260 341 -279 0 -4 19 -27 41 -52 22 -25 52 -65 66
-90 14 -25 32 -52 39 -60 18 -21 124 -237 124 -252 0 -7 7 -26 15 -42 8 -16
18 -47 21 -70 3 -22 12 -57 21 -77 22 -53 7 -74 -59 -87 -195 -39 -384 -94
-435 -127 -12 -8 -28 -15 -35 -15 -11 0 -70 -26 -118 -51 -8 -5 -35 -18 -60
-31 -88 -45 -196 -113 -274 -172 -43 -34 -87 -66 -98 -72 -25 -15 -206 -193
-279 -276 -80 -89 -91 -102 -170 -203 -145 -184 -165 -211 -181 -235 -8 -14
-34 -49 -57 -77 l-41 -52 -53 31 c-28 17 -65 38 -82 46 -16 9 -32 18 -35 22
-3 4 -26 17 -52 30 -27 13 -48 27 -48 31 0 4 -10 11 -22 15 -13 3 -70 38 -127
75 -57 38 -107 69 -112 69 -4 0 -14 6 -21 13 -7 8 -45 35 -83 62 -63 43 -152
110 -165 125 -3 3 -24 18 -48 34 -54 37 -187 177 -257 271 -69 91 -137 215
-165 301 -13 38 -29 85 -36 104 -6 19 -19 89 -28 155 -20 156 -11 270 35 425
48 161 128 277 297 432 72 66 249 175 343 211 123 47 164 61 204 68 22 4 54
12 70 17 32 12 157 29 295 42 138 13 421 3 555 -19z m-2544 -1467 c8 -10 13
-50 15 -112 2 -131 19 -292 39 -377 9 -38 20 -86 24 -105 8 -35 37 -126 52
-165 96 -239 165 -362 304 -536 84 -105 262 -278 365 -355 93 -69 318 -224
326 -224 2 0 36 -21 76 -47 40 -26 95 -59 123 -73 68 -37 75 -51 44 -93 -151
-213 -527 -604 -679 -707 -12 -8 -33 -23 -45 -32 -13 -10 -25 -18 -28 -18 -3
0 -28 -15 -56 -34 -58 -40 -231 -125 -276 -137 -16 -4 -43 -12 -60 -17 -101
-33 -139 -42 -206 -48 -41 -3 -83 -10 -94 -15 -42 -20 -424 6 -509 35 -26 9
-55 16 -66 16 -11 0 -34 6 -52 14 -18 8 -67 28 -108 45 -203 81 -351 190 -499
367 -48 58 -131 192 -162 262 -11 26 -24 56 -30 67 -39 83 -81 282 -100 474
-15 146 13 441 51 551 122 346 232 524 470 758 84 83 161 147 235 196 95 63
215 131 265 150 8 3 22 10 30 15 19 11 98 43 170 69 30 11 100 30 155 42 55
12 120 28 145 35 60 18 65 18 81 -1z m5116 -404 c24 -6 73 -14 111 -20 38 -5
82 -16 98 -25 16 -8 41 -15 55 -15 15 0 32 -7 39 -15 7 -8 20 -15 30 -15 20 0
138 -63 195 -105 286 -209 442 -505 475 -900 13 -157 0 -414 -26 -495 -7 -25
-20 -70 -28 -100 -16 -61 -39 -129 -62 -177 -8 -18 -22 -50 -32 -70 -57 -127
-208 -329 -321 -431 -66 -60 -185 -149 -231 -172 -25 -12 -56 -31 -69 -41 -28
-22 -185 -99 -202 -99 -7 0 -35 -11 -63 -23 -68 -32 -146 -57 -173 -57 -13 0
-40 -7 -60 -15 -21 -8 -70 -20 -108 -26 -39 -5 -86 -12 -106 -15 -31 -5 -36
-2 -47 21 -7 14 -12 33 -12 41 0 9 -6 30 -14 47 -7 18 -23 59 -36 92 -29 76
-80 185 -96 205 -7 8 -26 41 -44 74 -47 87 -156 229 -262 337 -99 102 -295
274 -357 314 -21 13 -44 29 -52 37 -31 28 -266 187 -389 262 -138 84 -160 100
-160 113 0 6 15 29 33 51 17 23 49 65 70 94 360 502 651 795 945 954 74 40
250 114 271 114 8 0 42 9 75 19 34 11 102 26 151 34 106 17 342 21 402 7z
m-2512 -2315 c46 -30 86 -55 88 -55 5 0 280 -183 348 -232 205 -147 403 -335
508 -483 71 -100 148 -254 179 -360 18 -60 43 -216 43 -265 0 -77 -25 -290
-36 -317 -8 -20 -15 -45 -15 -56 0 -11 -8 -38 -19 -61 -10 -23 -28 -63 -40
-91 -69 -155 -215 -318 -428 -481 -52 -40 -328 -174 -359 -174 -10 -1 -30 -7
-44 -15 -14 -8 -38 -14 -53 -15 -15 0 -44 -7 -64 -15 -20 -8 -70 -20 -112 -25
-42 -5 -103 -14 -136 -19 -108 -18 -528 -15 -640 3 -146 24 -246 46 -277 62
-14 8 -37 14 -50 14 -12 1 -41 9 -63 20 -22 11 -45 19 -52 20 -6 0 -24 7 -40
15 -15 8 -54 26 -87 40 -32 15 -92 46 -133 71 -41 24 -78 44 -83 44 -5 0 -15
6 -22 12 -7 7 -31 25 -53 40 -22 15 -53 39 -70 53 -16 13 -35 28 -40 32 -172
128 -327 314 -426 508 -52 102 -109 249 -109 282 -1 10 -7 36 -15 58 -8 22
-20 71 -26 108 -15 94 -12 97 115 97 182 0 421 32 576 76 107 31 241 77 246
86 3 4 14 8 26 8 18 0 45 12 123 53 11 6 51 27 88 46 179 95 327 206 521 392
108 103 277 290 376 415 112 141 134 164 151 164 11 0 57 -25 104 -55z"/>
</g>
</svg>
